<?xml version="1.0" standalone="no"?>
<!DOCTYPE svg PUBLIC "-//W3C//DTD SVG 1.1//EN" "http://www.w3.org/Graphics/SVG/1.1/DTD/svg11.dtd" >
<!--
2013-9-30: Created.
-->
<svg>
<metadata>
Created by iconfont
</metadata>
<defs>

<font id="iconfont" horiz-adv-x="1024" >
  <font-face
    font-family="iconfont"
    font-weight="500"
    font-stretch="normal"
    units-per-em="1024"
    ascent="896"
    descent="-128"
  />
    <missing-glyph />
    
    <glyph glyph-name="search" unicode="&#59091;" d="M358.107429 819.675429C127.597714 744.777143 1.426286 497.188571 76.324571 266.678857c74.898286-230.509714 322.486857-356.681143 552.996572-281.782857 230.509714 74.898286 356.681143 322.486857 281.782857 552.996571C836.205714 768.402286 588.617143 894.573714 358.107429 819.675429z m33.901714-104.338286a329.142857 329.142857 0 1 0 203.410286-626.102857A329.142857 329.142857 0 0 0 392.045714 715.337143zM630.528 411.172571a54.857143 54.857143 0 1 0 109.385143-8.667428 292.937143 292.937143 0 0 0-101.668572-199.533714 54.857143 54.857143 0 0 0-75.117714 79.798857l3.84 3.620571a183.222857 183.222857 0 0 1 62.464 114.541714l1.097143 10.24zM729.234286 166.765714a54.857143 54.857143 0 0 0 73.398857 3.803429l4.169143-3.766857 133.814857-133.851429a54.857143 54.857143 0 0 0-73.435429-81.334857l-4.169143 3.766857-133.814857 133.851429a54.857143 54.857143 0 0 0 0 77.531428z"  horiz-adv-x="1024" />

    
    <glyph glyph-name="none" unicode="&#59092;" d="M337.590857 558.409143a54.857143 54.857143 0 0 0 73.398857 3.766857l4.169143-3.766857 292.571429-292.571429a54.857143 54.857143 0 0 0-73.398857-81.334857l-4.169143 3.766857-292.571429 292.571429a54.857143 54.857143 0 0 0 0 77.568zM630.162286 558.409143a54.857143 54.857143 0 0 0 81.334857-73.398857l-3.766857-4.169143-292.571429-292.571429a54.857143 54.857143 0 0 0-81.334857 73.398857l3.766857 4.169143 292.571429 292.571429zM522.678857 822.857143C274.395429 822.857143 73.142857 621.604571 73.142857 373.321143c0-248.246857 201.252571-449.499429 449.536-449.499429 248.246857 0 449.499429 201.252571 449.499429 449.499429C972.178286 621.604571 770.925714 822.857143 522.678857 822.857143z m0-109.714286a339.821714 339.821714 0 1 0 0-679.606857 339.821714 339.821714 0 0 0 0 679.606857z"  horiz-adv-x="1024" />

    
    <glyph glyph-name="choice" unicode="&#59093;" d="M512 841.142857C259.510857 841.142857 54.857143 636.489143 54.857143 384S259.510857-73.142857 512-73.142857 969.142857 131.510857 969.142857 384 764.489143 841.142857 512 841.142857z m0-109.714286a347.428571 347.428571 0 1 0 0-694.857142 347.428571 347.428571 0 0 0 0 694.857142zM512 621.714286a237.714286 237.714286 0 1 1 0-475.428572 237.714286 237.714286 0 0 1 0 475.428572z m0-109.714286a128 128 0 1 0 0-256 128 128 0 0 0 0 256z"  horiz-adv-x="1024" />

    
    <glyph glyph-name="train" unicode="&#58999;" d="M614.4 722.944V793.6a51.2 51.2 0 0 1-51.2 51.2H460.8a51.2 51.2 0 0 1-51.2-51.2v-70.656a281.6 281.6 0 1 1 204.8 0zM512 332.8a128 128 0 1 0 128 128A128 128 0 0 0 512 332.8zM850.432 40.448L793.088 230.4a25.6 25.6 0 0 1-44.544 8.192 307.2 307.2 0 0 0-473.088 0 25.6 25.6 0 0 1-44.544-8.192l-57.344-189.952a51.2 51.2 0 0 1 51.2-66.048h578.56a51.2 51.2 0 0 1 47.104 66.048zM614.4 25.6H409.6v51.2h204.8z"  horiz-adv-x="1024" />

    
    <glyph glyph-name="subway" unicode="&#58997;" d="M742.4 631.4496h-460.8a25.6 25.6 0 0 0 0 51.2h460.8a25.6 25.6 0 0 0 0-51.2z m25.6-230.4a25.6 25.6 0 0 0-25.6-25.6h-460.8a25.6 25.6 0 0 0-25.6 25.6v153.6a25.6 25.6 0 0 0 25.6 25.6h460.8a25.6 25.6 0 0 0 25.6-25.6v-153.6z m-51.2-230.4a51.2 51.2 0 1 0 0 102.4512 51.2 51.2 0 0 0 0-102.4z m-419.3792-128l25.6 51.2h377.9584l25.6-51.2H297.4208zM256 221.9008a51.2 51.2 0 1 0 102.4 0 51.2 51.2 0 0 0-102.4 0z m537.6 563.2h-563.2a76.8 76.8 0 0 1-76.8-76.8v-537.6a76.8 76.8 0 0 1 76.8-76.8h35.3792l-32.6656-65.28a25.6 25.6 0 0 1 22.8864-37.0688h512a25.6 25.6 0 0 1 22.8864 37.0688l-32.6656 65.3312h35.3792a76.8 76.8 0 0 1 76.8 76.8v537.6a76.8 76.8 0 0 1-76.8 76.8z"  horiz-adv-x="1024" />

    
    <glyph glyph-name="bus" unicode="&#58998;" d="M768 401.1008a51.2 51.2 0 0 0-51.2-51.2H307.2a51.2 51.2 0 0 0-51.2 51.2v153.6a51.2 51.2 0 0 0 51.2 51.2h409.6a51.2 51.2 0 0 0 51.2-51.2v-153.6z m-51.2-230.4a51.2 51.2 0 1 0 0 102.4 51.2 51.2 0 0 0 0-102.4z m-409.6 0a51.2 51.2 0 1 0 0 102.4 51.2 51.2 0 0 0 0-102.4z m76.8 537.6h256a25.6 25.6 0 0 0 0-51.2h-256a25.6 25.6 0 0 0 0 51.2z m486.4-102.4h-25.6V644.096c0 43.264-24.8832 82.432-63.6928 98.4064-50.5344 20.736-135.3728 42.496-269.1072 42.496s-218.5728-21.76-269.1072-42.496C204.0832 726.6304 179.2 687.4112 179.2 644.096v-38.2464H153.6a51.2 51.2 0 0 1-51.2-51.2v-51.2a51.2 51.2 0 0 1 51.2-51.2h25.6v-330.9056c0-29.2864 22.9376-53.0432 51.2-53.0432H256a51.2 51.2 0 0 1 102.4 0h307.2a51.2 51.2 0 0 1 102.4 0h25.6c28.2624 0 51.2 23.7056 51.2 53.0944V452.3008h25.6a51.2 51.2 0 0 1 51.2 51.2v51.2a51.2 51.2 0 0 1-51.2 51.2z"  horiz-adv-x="1024" />

    
    <glyph glyph-name="walk" unicode="&#58990;" d="M592.128 537.088c34.2016 9.1136 59.392 39.2704 59.392 75.4688C651.5712 655.9744 615.424 691.2 570.88 691.2c-44.5952 0-80.7424-35.2256-80.7424-78.6432 0-14.6944 4.4032-28.3136 11.6224-40.0896-115.6608-21.504-166.2976-77.312-173.2608-85.1968l4.0448 6.7584c-4.6592-7.5264-6.0416-9.0112-4.096-6.7584L263.1168 378.368c-10.9568-17.7152-5.6832-42.8544 14.4896-50.4832 42.752-16.2816 47.5136 33.0752 110.1824 106.24 21.9136 25.6 48.896 29.5936 48.896 29.5936l-169.6768-301.4656a41.7792 41.7792 0 0 1 3.8912-60.16 44.8 44.8 0 0 1 61.952 3.2256l139.52 183.9616 102.0928-83.6096 24.3712-99.072c2.0992-19.6608 22.1696-32.768 44.8-29.184 22.7328 3.4304 39.424 22.2208 37.3248 41.8816l-29.696 120.6272c-15.8208 49.3056-103.0656 124.3136-103.0656 124.3136l15.36 55.6032s193.536-155.392 203.776-67.584c6.6048 56.32-32.1536-10.0864-168.192 168.0384a103.3216 103.3216 0 0 1-6.9632 16.7424z"  horiz-adv-x="1024" />

    
    <glyph glyph-name="bus1" unicode="&#58991;" d="M512 691.2c-141.4656 0-256-16.1792-256-129.3312v-323.3792c0-28.4672 12.4928-54.016 32-71.8336v-57.5488c0-17.7664 14.3872-32.3072 32-32.3072h32a32.256 32.256 0 0 1 32 32.3072v32.3584h256v-32.3584c0-17.7664 14.336-32.3072 32-32.3072h32a32.256 32.256 0 0 1 32 32.3072v57.5488c19.5072 17.8176 32 43.3664 32 71.8336V561.8688C768 675.0208 653.4656 691.2 512 691.2z m-144.0256-485.0688a48.2304 48.2304 0 0 0-47.872 48.5376c0 26.7776 21.504 48.4352 47.9744 48.4352 26.4704 0 47.872-21.7088 47.9232-48.4352a48.128 48.128 0 0 0-48.0256-48.5376z m288.0512 0a48.2816 48.2816 0 0 0-48.128 48.5376c0 26.8288 21.504 48.5888 48.0256 48.64 26.5216 0 48.0256-21.7088 48.0768-48.5376 0-26.8288-21.504-48.5888-47.9744-48.64z m47.9744 194.048h-384V561.8688h384v-161.6896z"  horiz-adv-x="1024" />

    
    <glyph glyph-name="end" unicode="&#58992;" d="M460.1344 398.6432l30.72 14.7456c9.4208 4.5056 18.1248 8.8064 26.112 12.9024 7.9872 4.096 15.6672 8.2944 23.04 12.5952 7.3728 4.3008 14.7456 9.1136 22.1184 14.4384-9.4208 10.24-18.7392 20.7872-27.9552 31.6416a408.4736 408.4736 0 0 0-26.7264 35.328c-4.5056-4.9152-9.216-10.8544-14.1312-17.8176-8.6016-10.6496-17.92-16.1792-27.9552-16.5888a30.0544 30.0544 0 0 0-24.8832 10.4448c-6.9632 8.192-10.24 16.0768-9.8304 23.6544 0.4096 7.5776 5.3248 16.896 14.7456 27.9552 13.5168 15.5648 26.112 32.8704 37.7856 51.9168 11.6736 19.0464 21.4016 39.2192 29.184 60.5184 4.9152 13.1072 10.9568 21.7088 18.1248 25.8048a32.1024 32.1024 0 0 0 24.8832 2.4576 31.4368 31.4368 0 0 0 18.1248-12.9024c5.12-6.9632 6.4512-16.9984 3.9936-30.1056h129.024c11.8784 0 22.1184-1.536 30.72-4.608 8.6016-3.072 14.9504-7.9872 19.0464-14.7456 4.096-6.7584 5.632-15.36 4.608-25.8048a120.832 120.832 0 0 0-11.3664-37.1712 332.1344 332.1344 0 0 0-35.9424-58.9824 426.1376 426.1376 0 0 0-49.4592-54.6816c14.7456-9.4208 30.72-18.432 47.9232-27.0336 17.2032-8.6016 35.6352-16.384 55.296-23.3472 15.5648-5.7344 24.9856-12.1856 28.2624-19.3536 3.2768-7.168 2.8672-16.6912-1.2288-28.5696-3.6864-11.0592-9.4208-17.8176-17.2032-20.2752-7.7824-2.4576-19.2512-0.6144-34.4064 5.5296a557.568 557.568 0 0 0-70.3488 33.792 346.0096 346.0096 0 0 0-28.8768 18.432c-9.216 6.5536-18.944 13.7216-29.184 21.504a807.2192 807.2192 0 0 0-133.3248-78.6432c-14.336-6.5536-26.5216-8.6016-36.5568-6.144a24.9856 24.9856 0 0 0-19.3536 17.8176c-2.048 6.144-3.072 11.5712-3.072 16.2816s1.2288 9.216 3.6864 13.5168a42.7008 42.7008 0 0 0 11.9808 12.5952c5.5296 4.096 13.0048 8.3968 22.4256 12.9024z m-43.008 111.8208A2655.5904 2655.5904 0 0 0 344.576 390.3488c-8.192-12.9024-17.408-27.136-27.648-42.7008-9.0112-12.6976-7.9872-18.432 3.072-17.2032 7.7824 0.8192 17.2032 2.1504 28.2624 3.9936 11.0592 1.8432 21.9136 3.584 32.5632 5.2224a44.4416 44.4416 0 0 0 27.0336-3.072c7.3728-3.6864 11.8784-12.6976 13.5168-27.0336 1.2288-21.2992-10.0352-33.9968-33.792-38.0928-23.3472-4.5056-46.3872-8.192-69.12-11.0592a482.304 482.304 0 0 0-59.2896-4.3008 42.3936 42.3936 0 0 0-40.8576 26.7264 51.0976 51.0976 0 0 0-3.072 25.1904c1.024 9.216 4.4032 17.92 10.1376 26.112 13.5168 18.8416 25.6 35.9424 36.2496 51.3024l29.4912 42.7008-41.7792-2.4576a41.7792 41.7792 0 0 0-25.4976 4.9152 36.4032 36.4032 0 0 0-14.7456 16.2816 46.848 46.848 0 0 0-3.6864 23.04c0.6144 8.6016 3.1744 16.9984 7.68 25.1904 13.1072 22.1184 24.1664 41.0624 33.1776 56.832 9.0112 15.7696 16.896 29.7984 23.6544 42.0864s12.8 23.552 18.1248 33.792c5.3248 10.24 10.4448 20.8896 15.36 31.9488 6.9632 14.7456 14.336 24.2688 22.1184 28.5696 7.7824 4.3008 17.408 3.7888 28.8768-1.536 10.6496-4.5056 17.2032-11.3664 19.6608-20.5824 2.4576-9.216 0.2048-20.992-6.7584-35.328-4.9152-9.8304-9.5232-18.8416-13.824-27.0336-4.3008-8.192-8.8064-16.384-13.5168-24.576a1236.3776 1236.3776 0 0 0-35.328-57.7536c-6.144-9.4208-8.704-15.5648-7.68-18.432 1.024-2.8672 5.0176-4.096 11.9808-3.6864l27.648 1.2288c4.096 7.3728 8.0896 14.7456 11.9808 22.1184 3.8912 7.3728 8.0896 15.1552 12.5952 23.3472 8.6016 16.384 17.3056 25.9072 26.112 28.5696a35.328 35.328 0 0 0 27.3408-3.3792c8.192-4.5056 12.6976-12.1856 13.5168-23.04 0.8192-10.8544-2.8672-23.4496-11.0592-37.7856z m343.4496-385.8432c-4.5056-9.4208-10.9568-14.4384-19.3536-15.0528-8.3968-0.6144-18.944 1.536-31.6416 6.4512-21.2992 8.192-40.6528 15.5648-58.0608 22.1184-17.408 6.5536-34.6112 12.5952-51.6096 18.1248a2776.9856 2776.9856 0 0 1-52.8384 16.5888 1972.6336 1972.6336 0 0 1-61.7472 17.5104c-11.0592 3.2768-18.6368 8.4992-22.7328 15.6672-4.096 7.168-4.5056 16.0768-1.2288 26.7264 3.2768 10.24 8.2944 17.408 15.0528 21.504 6.7584 4.096 16.4864 4.7104 29.184 1.8432 19.6608-4.096 40.8576-9.3184 63.5904-15.6672 22.7328-6.3488 45.056-13.2096 66.9696-20.5824 21.9136-7.3728 42.3936-14.9504 61.44-22.7328 19.0464-7.7824 34.5088-14.9504 46.3872-21.504 11.0592-6.5536 18.0224-13.7216 20.8896-21.504 2.8672-7.7824 1.4336-17.6128-4.3008-29.4912z m-331.776 94.6176c3.6864-11.8784 3.6864-21.0944 0-27.648-3.6864-6.5536-11.6736-12.6976-23.9616-18.432-25.8048-11.8784-51.5072-22.016-77.1072-30.4128-25.6-8.3968-50.688-15.0528-75.264-19.968-14.336-3.2768-25.1904-3.1744-32.5632 0.3072-7.3728 3.4816-12.0832 11.1616-14.1312 23.04-2.048 11.8784-0.8192 21.4016 3.6864 28.5696 4.5056 7.168 13.7216 12.3904 27.648 15.6672s26.9312 6.5536 39.0144 9.8304 23.552 6.656 34.4064 10.1376c10.8544 3.4816 21.6064 7.3728 32.256 11.6736 10.6496 4.3008 21.7088 8.9088 33.1776 13.824 28.2624 12.6976 45.8752 7.168 52.8384-16.5888z m297.3696 28.2624c-5.7344-10.24-12.3904-15.4624-19.968-15.6672-7.5776-0.2048-17.3056 3.1744-29.184 10.1376a475.136 475.136 0 0 1-51.9168 27.9552c-17.408 7.9872-37.5808 16.2816-60.5184 24.8832-13.1072 5.3248-21.4016 11.4688-24.8832 18.432-3.4816 6.9632-2.9696 16.384 1.536 28.2624 3.6864 9.4208 9.8304 15.2576 18.432 17.5104a42.5984 42.5984 0 0 0 27.648-2.7648c26.2144-10.6496 49.5616-20.6848 70.0416-30.1056 20.48-9.4208 39.936-20.0704 58.368-31.9488 11.8784-7.3728 18.0224-14.9504 18.432-22.7328a38.1952 38.1952 0 0 0-7.9872-23.9616zM550.4 583.5776a97.1776 97.1776 0 0 0-6.144-7.9872c10.6496-16.7936 21.7088-32.256 33.1776-46.3872 11.4688-14.1312 23.3472-27.136 35.6352-39.0144a374.272 374.272 0 0 1 32.8704 36.2496c10.4448 13.1072 19.968 25.8048 28.5696 38.0928 4.5056 6.9632 6.3488 11.8784 5.5296 14.7456-0.8192 2.8672-4.7104 4.3008-11.6736 4.3008H550.4z"  horiz-adv-x="1024" />

    
    <glyph glyph-name="start" unicode="&#58993;" d="M457.5744 631.6032c13.9264 0 23.3472-3.1744 28.2624-9.5232 4.9152-6.3488 7.3728-14.848 7.3728-25.4976a37.6832 37.6832 0 0 0-7.9872-24.576c-5.3248-6.5536-14.5408-9.8304-27.648-9.8304H409.6v-58.368h59.5968c13.9264 0 23.3472-3.2768 28.2624-9.8304 4.9152-6.5536 7.3728-15.1552 7.3728-25.8048a38.9632 38.9632 0 0 0-7.9872-24.8832c-5.3248-6.7584-14.5408-10.1376-27.648-10.1376h-43.008v-78.6432h31.9488c13.9264 0 23.3472-3.1744 28.2624-9.5232 4.9152-6.3488 7.3728-15.2576 7.3728-26.7264 0-11.4688-2.4576-20.3776-7.3728-26.7264-4.9152-6.3488-14.336-9.5232-28.2624-9.5232h-31.9488v-85.4016c2.048-0.8192 4.1984-1.536 6.4512-2.1504 2.2528-0.6144 4.4032-1.3312 6.4512-2.1504a422.8608 422.8608 0 0 1 53.76-11.6736c10.4448-1.6384 22.7328-2.8672 36.864-3.6864a2178.048 2178.048 0 0 1 122.5728-3.9936c27.4432-0.2048 60.0064-0.3072 97.6896-0.3072 10.24 0 18.6368-0.4096 25.1904-1.2288s11.776-2.3552 15.6672-4.608c3.8912-2.2528 6.5536-5.632 7.9872-10.1376 1.4336-4.5056 2.1504-10.4448 2.1504-17.8176 0-15.1552-3.4816-25.3952-10.4448-30.72-6.9632-5.3248-20.0704-7.9872-39.3216-7.9872-37.6832 0-70.4512 0.1024-98.304 0.3072a3313.5616 3313.5616 0 0 0-72.8064 1.2288 1332.736 1332.736 0 0 0-52.8384 2.4576 866.304 866.304 0 0 0-37.7856 3.3792 307.1488 307.1488 0 0 0-50.3808 9.8304c-31.9488 8.192-58.7776 19.0464-80.4864 32.5632a166.4 166.4 0 0 0-54.0672 55.296 470.016 470.016 0 0 0-19.6608-64.512c-6.144-14.7456-13.824-25.4976-23.04-32.256s-20.3776-6.656-33.4848 0.3072c-12.288 6.144-19.7632 13.2096-22.4256 21.1968-2.6624 7.9872-0.7168 19.3536 5.8368 34.0992 13.5168 30.72 23.6544 63.7952 30.4128 99.2256 6.7584 35.4304 9.9328 71.7824 9.5232 109.056-0.4096 16.384 2.2528 27.5456 7.9872 33.4848 5.7344 5.9392 13.9264 9.728 24.576 11.3664l-2.4576-0.6144c11.8784 2.048 21.0944 0 27.648-6.144 6.5536-6.144 10.24-17.408 11.0592-33.792 0-2.8672 0.1024-7.0656 0.3072-12.5952a474.0096 474.0096 0 0 0 0-35.0208c-0.2048-5.5296-0.3072-9.728-0.3072-12.5952 2.8672-14.7456 7.68-27.2384 14.4384-37.4784 6.7584-10.24 13.6192-20.8896 20.5824-31.9488V433.152H250.5216c-13.5168 0-22.7328 3.3792-27.648 10.1376a41.1648 41.1648 0 0 0-7.3728 24.8832c0 10.6496 2.2528 19.2512 6.7584 25.8048 4.5056 6.5536 13.9264 9.8304 28.2624 9.8304H338.944V562.176H266.496c-13.1072 0-22.3232 3.2768-27.648 9.8304a37.6832 37.6832 0 0 0-7.9872 24.576c0 10.6496 2.4576 19.1488 7.3728 25.4976 4.9152 6.3488 14.336 9.5232 28.2624 9.5232H338.944v23.3472c0 11.4688 3.2768 20.3776 9.8304 26.7264A35.5328 35.5328 0 0 0 374.6304 691.2c11.0592 0 19.6608-3.1744 25.8048-9.5232s9.216-15.2576 9.216-26.7264v-23.3472h47.9232z m333.0048-320.7168c0-19.6608-1.3312-36.0448-3.9936-49.152a69.8368 69.8368 0 0 0-14.4384-31.9488c-6.9632-8.192-16.2816-14.336-27.9552-18.432-11.6736-4.096-26.3168-7.168-43.9296-9.216a338.5856 338.5856 0 0 0-49.152-3.072c-7.7824 0-15.872 0.2048-24.2688 0.6144-8.3968 0.4096-17.7152 1.024-27.9552 1.8432a309.4016 309.4016 0 0 0-44.544 6.7584 59.0336 59.0336 0 0 0-27.648 14.1312 52.9408 52.9408 0 0 0-14.1312 26.112 181.76 181.76 0 0 0-3.9936 42.0864V420.2496c0 23.3472 4.9152 39.424 14.7456 48.2304 9.8304 8.8064 26.4192 13.2096 49.7664 13.2096h99.5328c10.24 0 16.6912 1.1264 19.3536 3.3792 2.6624 2.2528 3.9936 6.8608 3.9936 13.824V562.7904c0 7.3728-1.4336 12.1856-4.3008 14.4384-2.8672 2.2528-9.216 3.3792-19.0464 3.3792H544.768c-13.5168 0-22.7328 2.8672-27.648 8.6016-4.9152 5.7344-7.3728 14.336-7.3728 25.8048 0 13.1072 2.4576 22.3232 7.3728 27.648 4.9152 5.3248 14.336 7.9872 28.2624 7.9872H701.44c22.528 0 38.912-4.5056 49.152-13.5168 10.24-9.0112 15.36-25.1904 15.36-48.5376v-116.736c0-11.8784-1.1264-21.6064-3.3792-29.184a37.8368 37.8368 0 0 0-11.0592-18.1248 41.8304 41.8304 0 0 0-19.6608-9.216 147.8144 147.8144 0 0 0-29.184-2.4576h-89.7024c-14.336 0-23.4496-1.7408-27.3408-5.2224-3.8912-3.4816-5.8368-10.5472-5.8368-21.1968v-84.1728c0-17.2032 8.3968-26.8288 25.1904-28.8768 15.5648-1.6384 29.9008-2.4576 43.008-2.4576s26.4192 1.024 39.936 3.072c6.5536 1.2288 11.9808 2.3552 16.2816 3.3792a18.8416 18.8416 0 0 1 9.8304 5.2224 20.8896 20.8896 0 0 1 4.608 10.752c0.8192 4.7104 1.2288 11.3664 1.2288 19.968 0 14.336 2.4576 24.3712 7.3728 30.1056 4.9152 5.7344 14.1312 8.6016 27.648 8.6016 11.8784 0 20.7872-3.2768 26.7264-9.8304 5.9392-6.5536 8.9088-16.9984 8.9088-31.3344z"  horiz-adv-x="1024" />

    
    <glyph glyph-name="selected" unicode="&#58985;" d="M512 896c282.752 0 512-229.248 512-512s-229.248-512-512-512S0 101.248 0 384 229.248 896 512 896z m217.472-311.68l-278.314667-278.314667-143.189333 143.146667-90.496-90.496 233.685333-233.685333 368.810667 368.853333-90.496 90.453333z"  horiz-adv-x="1024" />

    
    <glyph glyph-name="help" unicode="&#58984;" d="M512.00032 895.99936a511.35968 511.35968 0 0 1-511.99968-511.99968c0-283.327823 228.671857-511.99968 511.99968-511.99968s511.99968 228.671857 511.99968 511.99968-228.671857 511.99968-511.99968 511.99968z m34.111979-791.871505a37.119977 37.119977 0 0 0-11.903993-15.35999c-5.119997-5.119997-10.239994-8.575995-15.35999-11.967993-6.847996-3.391998-11.967993-3.391998-18.815989-3.391998a61.375962 61.375962 0 0 0-18.751988 3.391998 37.119977 37.119977 0 0 0-15.35999 11.967993c-5.119997 5.119997-8.511995 10.239994-11.967993 15.35999-3.391998 6.783996-3.391998 11.903993-3.391998 18.751988 0 6.847996 1.727999 13.631991 3.391998 18.751988a37.119977 37.119977 0 0 0 11.967993 15.359991c5.119997 5.119997 10.239994 8.575995 15.35999 11.967992 6.847996 3.391998 11.967993 3.391998 18.751988 3.391998 6.847996 0 13.695991-1.663999 18.815989-3.391998a37.119977 37.119977 0 0 0 15.35999-11.967992c5.119997-5.119997 8.511995-10.239994 11.903993-15.359991 3.455998-6.783996 3.455998-11.903993 3.455998-18.751988a61.375962 61.375962 0 0 0-3.455998-18.751988z m114.367928 360.063775a332.159792 332.159792 0 0 0-52.927967-66.559959c-13.631991-13.631991-25.599984-25.599984-34.111978-35.839977-8.511995-10.239994-15.35999-18.751988-18.751989-25.599984-3.455998-8.511995-6.847996-15.35999-8.575994-22.143986-1.663999-6.847996-1.663999-15.35999-1.663999-25.599984 0-32.44798-13.695991-47.80797-40.959975-47.80797-10.239994 0-18.815988 0-23.935985 1.727999-6.783996 1.663999-10.239994 3.391998-13.631991 8.511994-3.391998 3.391998-5.119997 8.511995-6.847996 15.359991-1.663999 6.847996-1.663999 13.631991-1.663999 22.207986 0 51.199968 25.599984 102.399936 78.463951 151.871905 10.239994 11.967993 20.479987 22.207986 27.327983 28.991982 6.847996 8.575995 13.631991 15.35999 17.087989 22.207986 3.391998 6.847996 6.783996 13.631991 8.511995 20.479987 1.727999 6.847996 1.727999 15.35999 1.727999 23.871985 0 22.207986-6.847996 39.295975-20.479987 51.199968-13.695991 11.967993-32.44798 18.815988-56.319965 18.815988-23.935985 0-42.687973-6.847996-58.047964-20.479987a79.99995 79.99995 0 0 1-23.871985-49.535969c-1.727999-28.991982-15.35999-44.351972-42.687973-44.351972-28.991982 0-42.687973 13.631991-42.687974 42.687973 0 40.959974 15.35999 76.799952 47.807971 109.183932 30.719981 30.719981 71.679955 47.80797 121.151924 47.80797 49.535969 0 88.767945-13.631991 117.759926-40.959974 29.055982-27.327983 42.687973-66.559958 42.687974-117.759927 1.727999-25.599984-5.119997-47.80797-15.359991-68.287957z"  horiz-adv-x="1024" />

    
    <glyph glyph-name="location" unicode="&#58978;" d="M732.9792 178.0224l-181.0432-181.0432a38.4 38.4 0 0 0-54.272 0l-181.0432 181.0432a38.656 38.656 0 0 0-4.2496 5.0176 320 320 0 1 0 424.8576 0 38.656 38.656 0 0 0-4.2496-5.0176z m-52.5824 57.4464a243.2 243.2 0 1 1-311.1936 0 38.4 38.4 0 0 0 8.3456-9.728l147.2512-147.3024 147.2512 147.2512a38.4 38.4 0 0 0 8.3456 9.7792zM416.2048 313.8048A153.6 153.6 0 1 1 633.344 530.944 153.6 153.6 0 0 1 416.256 313.856z m36.1984 36.1984a102.4 102.4 0 1 0 144.7936 144.7936 102.4 102.4 0 0 0-144.7936-144.7936z"  horiz-adv-x="1024" />

    
    <glyph glyph-name="food" unicode="&#58979;" d="M897.6384 230.5024h-90.368a36.608 36.608 0 0 0-36.1472 36.864v36.864c0 141.824-113.8688 257.9456-253.0304 257.9456s-253.0304-116.0704-253.0304-257.9456c0-5.5296 0-12.9024 1.792-18.432 0 0-1.792-11.0592-1.792-18.432 0-20.2752-16.2816-36.864-36.1472-36.864H138.5472a36.608 36.608 0 0 0-36.1472 36.864c0 20.2752 16.2816 36.864 36.1472 36.864h54.2208c0 163.9936 117.4528 300.3392 271.104 326.144V635.904c0 31.3344 23.5008 55.296 54.2208 55.296 30.72 0 54.2208-23.9616 54.2208-55.296v-5.5296c153.6-25.8048 271.104-162.1504 271.104-326.144h54.2208c19.8656 0 36.1472-16.5888 36.1472-36.864 0-20.2752-16.2816-36.864-36.1472-36.864z m-415.744 257.9968h9.0624c14.4896 0 27.136-12.9024 27.136-27.648 0-14.7456-12.6464-27.648-27.136-27.648h-9.0112c-59.648 0-108.4416-49.7664-108.4416-110.592v-9.216c0-14.6944-12.6464-27.648-27.136-27.648a28.1088 28.1088 0 0 0-27.136 27.648v9.216c0 92.16 72.3456 165.888 162.7136 165.888z m-343.3472-350.1568h759.0912c19.8656 0 36.1472-16.5888 36.1472-36.864 0-20.2752-16.2816-36.864-36.1472-36.864H138.5472a36.608 36.608 0 0 0-36.1472 36.864c0 20.2752 16.2816 36.864 36.1472 36.864z"  horiz-adv-x="1024" />

    
    <glyph glyph-name="change_white" unicode="&#58977;" d="M874.709333 234.624a42.666667 42.666667 0 1 1 0 85.333333h-682.666666c-39.722667 0-57.898667-49.493333-27.605334-75.221333l201.258667-170.666667a42.666667 42.666667 0 1 1 55.168 65.109334l-112.554667 95.445333h566.4zM758.357333 533.290667H191.957333a42.666667 42.666667 0 1 1 0-85.333334h682.666667c39.722667 0 57.898667 49.493333 27.605333 75.221334l-201.258666 170.666666a42.666667 42.666667 0 1 1-55.168-65.109333L758.357333 533.333333z"  horiz-adv-x="1024" />

    
    <glyph glyph-name="wechat_top" unicode="&#58975;" d="M512-42.666667C276.352-42.666667 85.333333 148.352 85.333333 384S276.352 810.666667 512 810.666667s426.666667-191.018667 426.666667-426.666667-191.018667-426.666667-426.666667-426.666667z m103.338667 506.752c6.101333 0 12.117333-0.426667 18.090666-1.109333C617.173333 540.074667 536.234667 597.333333 443.861333 597.333333 340.608 597.333333 256 525.653333 256 434.602667c0-52.565333 28.16-95.701333 75.178667-129.152l-18.773334-57.6 65.664 33.578666c23.466667-4.736 42.368-9.6 65.792-9.6 5.888 0 11.733333 0.256 17.536 0.725334a144.768 144.768 0 0 0-5.802666 40.106666c0 83.626667 70.485333 151.466667 159.744 151.466667z m-101.034667 51.882667c14.165333 0 23.509333-9.472 23.509333-23.893333 0-14.336-9.386667-23.893333-23.466666-23.893334-14.08 0-28.245333 9.557333-28.245334 23.893334 0 14.421333 14.122667 23.893333 28.202667 23.893333z m-131.456-47.786667c-14.08 0-28.288 9.557333-28.288 23.893334 0 14.421333 14.208 23.893333 28.288 23.893333s23.466667-9.472 23.466667-23.893333c0-14.336-9.386667-23.893333-23.466667-23.893334z m403.925333-153.216c0 76.501333-75.136 138.837333-159.573333 138.837334-89.386667 0-159.786667-62.336-159.786667-138.837334 0-76.629333 70.4-138.837333 159.786667-138.837333 18.730667 0 37.589333 4.778667 56.405333 9.6l51.498667-28.757333-14.08 47.786666c37.674667 28.842667 65.749333 67.072 65.749333 110.208z m-211.370666 23.936c-9.344 0-18.773333 9.472-18.773334 19.157334 0 9.514667 9.429333 19.114667 18.773334 19.114666 14.208 0 23.509333-9.6 23.509333-19.114666 0-9.685333-9.301333-19.157333-23.466667-19.157334z m103.338666 0c-9.301333 0-18.645333 9.472-18.645333 19.157334 0 9.514667 9.386667 19.114667 18.645333 19.114666 14.08 0 23.509333-9.6 23.509334-19.114666 0-9.685333-9.386667-19.157333-23.466667-19.157334z"  horiz-adv-x="1024" />

    
    <glyph glyph-name="phone_top" unicode="&#58976;" d="M512-42.666667C276.352-42.666667 85.333333 148.352 85.333333 384S276.352 810.666667 512 810.666667s426.666667-191.018667 426.666667-426.666667-191.018667-426.666667-426.666667-426.666667z m110.421333 682.666667H401.578667C368.298667 640 341.333333 613.546667 341.333333 580.906667v-393.813334C341.333333 154.453333 368.298667 128 401.578667 128h220.842666c33.28 0 60.245333 26.453333 60.245334 59.093333v393.813334C682.666667 613.546667 655.701333 640 622.421333 640z m-130.517333-19.712h40.192c5.546667 0 10.026667-4.394667 10.026667-9.813333 0-5.461333-4.48-9.856-10.026667-9.856h-40.192a9.941333 9.941333 0 0 0-10.026667 9.813333c0 5.461333 4.48 9.856 10.026667 9.856zM512 152.064a25.429333 25.429333 0 0 0-25.685333 25.173333c0 13.909333 11.52 25.173333 25.685333 25.173334 14.165333 0 25.685333-11.264 25.685333-25.173334 0-13.909333-11.52-25.173333-25.685333-25.173333z m130.517333 84.224c0-5.418667-4.48-9.813333-10.026666-9.813333H391.509333a9.941333 9.941333 0 0 0-10.026666 9.813333V571.093333c0 5.418667 4.48 9.813333 10.026666 9.813334h240.981334c5.546667 0 10.026667-4.394667 10.026666-9.813334v-334.805333z"  horiz-adv-x="1024" />

    
    <glyph glyph-name="xiaochengxu" unicode="&#58968;" d="M512 810.666667c235.648 0 426.666667-191.018667 426.666667-426.666667s-191.018667-426.666667-426.666667-426.666667S85.333333 148.35199999999998 85.333333 384 276.352 810.666667 512 810.666667z m117.461333-182.826667a163.370667 163.370667 0 0 1-81.28-21.418667l-7.466666-4.608c-39.082667-25.429333-64.768-66.986667-64.768-113.962666v-207.744c0-37.418667-36.394667-67.754667-81.194667-67.754667-44.928 0-81.322667 30.378667-81.322667 67.754667 0 26.538667 18.474667 49.578667 45.354667 60.672 1.962667 0.853333 3.925333 1.536 5.930667 2.218666l6.186666 2.816c14.08 7.125333 25.813333 18.56 30.506667 31.402667 7.936 21.802667-6.912 39.466667-33.066667 39.466667a66.602667 66.602667 0 0 1-19.413333-3.072 151.765333 151.765333 0 0 1-88.576-65.792l-4.352-7.68a128.853333 128.853333 0 0 1-14.848-59.989334c0-77.226667 68.949333-139.946667 153.472-139.946666a162.773333 162.773333 0 0 1 81.322667 21.376l7.466666 4.565333c39.082667 25.344 64.725333 66.944 64.725334 114.005333V487.850667c0 37.376 36.352 67.712 81.237333 67.712 44.928 0 81.365333-30.378667 81.365333-67.712 0-27.776-20.138667-51.626667-48.725333-62.037334-18.56-6.229333-33.706667-19.626667-39.466667-35.456-7.893333-21.717333 6.784-39.253333 32.768-39.253333 5.973333 0 11.946667 0.938667 17.664 2.645333l2.858667 0.768a152.021333 152.021333 0 0 1 87.808 65.578667 128.896 128.896 0 0 1 19.328 67.754667l-0.213333 7.68c-4.394667 73.642667-71.424 132.309333-153.301334 132.309333z"  horiz-adv-x="1024" />

    
    <glyph glyph-name="wechat" unicode="&#58967;" d="M667.282286 529.408c10.093714 0 20.004571-0.731429 29.915428-1.865143C670.317714 654.994286 536.502857 749.714286 383.780571 749.714286 213.028571 749.714286 73.142857 631.186286 73.142857 480.658286c0-86.893714 46.518857-158.244571 124.342857-213.577143L166.4 171.885714l108.544 55.478857c38.875429-7.826286 70.070857-15.872 108.836571-15.872 9.728 0 19.382857 0.475429 29.001143 1.243429a239.396571 239.396571 0 0 0-9.581714 66.267429c0 138.24 116.516571 250.404571 264.082286 250.404571zM500.297143 615.204571c23.405714 0 38.875429-15.689143 38.875428-39.497142 0-23.698286-15.506286-39.606857-38.875428-39.606858-23.296 0-46.628571 15.908571-46.628572 39.606858 0 23.808 23.332571 39.497143 46.628572 39.497142zM282.88 536.100571c-23.296 0-46.811429 15.908571-46.811429 39.606858 0 23.808 23.515429 39.497143 46.811429 39.497142 23.259429 0 38.765714-15.689143 38.765714-39.497142 0-23.698286-15.506286-39.606857-38.765714-39.606858zM950.784 282.843429c0 126.464-124.269714 229.558857-263.862857 229.558857-147.785143 0-264.192-103.094857-264.192-229.558857 0-126.72 116.406857-229.595429 264.192-229.595429 30.939429 0 62.171429 7.936 93.257143 15.872l85.138285-47.542857-23.332571 79.104c62.354286 47.616 108.8 110.811429 108.8 182.125714z m-349.513143 39.570285c-15.469714 0-31.085714 15.652571-31.085714 31.634286 0 15.798857 15.616 31.670857 31.085714 31.670857 23.478857 0 38.875429-15.872 38.875429-31.670857 0-15.981714-15.36-31.634286-38.875429-31.634286z m170.861714 0c-15.36 0-30.866286 15.652571-30.866285 31.634286 0 15.798857 15.506286 31.670857 30.866285 31.670857 23.296 0 38.875429-15.872 38.875429-31.670857 0-15.981714-15.579429-31.634286-38.875429-31.634286z"  horiz-adv-x="1024" />

    
    <glyph glyph-name="change" unicode="&#58963;" d="M512-87.03999999999996C251.86304-87.03999999999996 40.96 123.86303999999996 40.96 384S251.86304 855.04 512 855.04 983.04 644.13696 983.04 384 772.13696-87.03999999999996 512-87.03999999999996z m0 81.92a389.12 389.12 0 1 1 0 778.24 389.12 389.12 0 0 1 0-778.24zM375.35744 493.52704l-56.81152-70.2464a40.96 40.96 0 0 0-63.65184 51.52768l129.59744 160.23552c24.28928 30.02368 72.78592 12.86144 72.78592-25.76384v-438.35392a40.96 40.96 0 1 0-81.92 0V493.52704zM655.36 286.80192l56.81152 70.20544a40.96 40.96 0 1 0 63.6928-51.52768l-129.6384-160.23552c-24.24832-29.98272-72.78592-12.82048-72.78592 25.8048V609.32096a40.96 40.96 0 0 0 81.92 0v-322.56z"  horiz-adv-x="1024" />

    
    <glyph glyph-name="close" unicode="&#58962;" d="M994.7136 721.92L174.148267-98.7136 29.218133 46.08 849.851733 866.7136zM849.92-98.7136L29.2864 721.851733 174.08 866.781867l820.6336-820.565334z"  horiz-adv-x="1024" />

    
    <glyph glyph-name="arrow_line" unicode="&#58961;" d="M227.2 570.496l-90.496-90.496L544 72.704 951.296 480l-90.496 90.496L544 253.696z"  horiz-adv-x="1024" />

    
    <glyph glyph-name="phone" unicode="&#58960;" d="M728.746667 782.222222H352.142222C314.766222 782.222222 284.444444 750.762667 284.444444 712.135111v-713.102222C284.444444-39.651556 314.766222-71.111111 352.142222-71.111111h376.604445c37.376 0 67.697778 31.459556 67.697777 70.144V712.135111C796.444444 750.819556 766.122667 782.222222 728.746667 782.222222z m-376.604445-48.412444h376.604445c11.548444 0 20.935111-9.728 20.935111-21.617778v-576.853333H331.207111V712.192c0 11.889778 9.386667 21.617778 20.935111 21.617778zM477.696 41.528889c0 37.034667 28.899556 66.958222 64.625778 66.958222 35.669333 0 64.625778-29.923556 64.625778-66.958222a65.422222 65.422222 0 0 0-51.939556-64.284445H529.635556a65.422222 65.422222 0 0 0-51.882667 64.284445z"  horiz-adv-x="1024" />

    
    <glyph glyph-name="arrow" unicode="&#58954;" d="M489.984 171.904L128 534.016h724.096z"  horiz-adv-x="1024" />

    
    <glyph glyph-name="share" unicode="&#58956;" d="M918.4256-23.8592H156.8256A54.4256 54.4256 0 0 0 102.4 30.5664V790.3744c0 30.0032 24.3712 54.3744 54.4256 54.3744h217.6a54.4256 54.4256 0 0 0 0-108.8H211.2v-651.008h652.8v163.2256a54.4256 54.4256 0 0 0 108.8 0v-217.6c0-30.0544-24.3712-54.4256-54.3744-54.4256zM374.4256 195.584a54.4256 54.4256 0 0 0-38.0928 92.4672l487.7824 487.7824A54.4768 54.4768 0 0 0 901.12 698.7776l-488.704-486.912c-10.0352-10.24-23.7056-16.0768-38.0416-16.2816zM918.4256 411.3408a54.4256 54.4256 0 0 0-54.4256 54.4256V735.9488h-271.9744a54.4256 54.4256 0 0 0 0 108.8h326.4c30.0032 0 54.3744-24.3712 54.3744-54.4256v-324.608c0-30.0032-24.3712-54.3744-54.3744-54.3744z"  horiz-adv-x="1024" />

    


  </font>
</defs>
</svg>
